{
    "accessors" : [
        {
            "bufferView" : 0,
            "componentType" : 5123,
            "count" : 108,
            "max" : [
                69
            ],
            "min" : [
                0
            ],
            "type" : "SCALAR"
        },
        {
            "bufferView" : 1,
            "componentType" : 5126,
            "count" : 70,
            "max" : [
                1.0000004768371582,
                3.250044107437134,
                1.0000005960464478
            ],
            "min" : [
                -1.0000003576278687,
                -1.0,
                -1.0000003576278687
            ],
            "type" : "VEC3"
        },
        {
            "bufferView" : 2,
            "componentType" : 5126,
            "count" : 70,
            "max" : [
                1.0,
                1.0,
                1.0
            ],
            "min" : [
                -1.0,
                -1.0,
                -1.0
            ],
            "type" : "VEC3"
        },
        {
            "bufferView" : 3,
            "componentType" : 5126,
            "count" : 70,
            "max" : [
                1.5686690346683463e-07,
                2.278091528751247e-07,
                1.0,
                1.0
            ],
            "min" : [
                -1.0,
                -1.0,
                -4.768372718899627e-07,
                -1.0
            ],
            "type" : "VEC4"
        },
        {
            "bufferView" : 4,
            "componentType" : 5126,
            "count" : 70,
            "max" : [
                0.9997010231018066,
                0.9997010060178582
            ],
            "min" : [
                0.0002989939821418375,
                0.03310120105743408
            ],
            "type" : "VEC2"
        },
        {
            "bufferView" : 5,
            "componentType" : 5123,
            "count" : 70,
            "max" : [
                0,
                1,
                0,
                0
            ],
            "min" : [
                0,
                1,
                0,
                0
            ],
            "type" : "VEC4"
        },
        {
            "bufferView" : 6,
            "componentType" : 5126,
            "count" : 70,
            "max" : [
                0.9411638975143433,
                0.9649890065193176,
                0.0,
                0.0
            ],
            "min" : [
                0.020021934062242508,
                0.05883609503507614,
                0.0,
                0.0
            ],
            "type" : "VEC4"
        },
        {
            "bufferView" : 7,
            "componentType" : 5126,
            "count" : 2,
            "max" : [
                1.0,
                0.0,
                0.0,
                0.0,
                0.0,
                0.9999999403953552,
                0.0,
                0.0,
                0.0,
                0.0,
                1.0,
                0.0,
                0.014527826569974422,
                0.9557145833969116,
                -0.02053656429052353,
                1.0
            ],
            "min" : [
                1.0,
                0.0,
                0.0,
                0.0,
                0.0,
                0.9999999403953552,
                0.0,
                0.0,
                0.0,
                0.0,
                1.0,
                0.0,
                0.014527826569974422,
                -1.0166330337524414,
                -0.02053656429052353,
                1.0
            ],
            "type" : "MAT4"
        },
        {
            "bufferView" : 8,
            "componentType" : 5126,
            "count" : 60,
            "max" : [
                2.4583333333333335
            ],
            "min" : [
                0.0
            ],
            "type" : "SCALAR"
        },
        {
            "bufferView" : 9,
            "componentType" : 5126,
            "count" : 60,
            "max" : [
                0.0,
                1.972347617149353,
                0.0
            ],
            "min" : [
                0.0,
                1.972347617149353,
                0.0
            ],
            "type" : "VEC3"
        },
        {
            "bufferView" : 10,
            "componentType" : 5126,
            "count" : 60,
            "max" : [
                2.4583333333333335
            ],
            "min" : [
                0.0
            ],
            "type" : "SCALAR"
        },
        {
            "bufferView" : 11,
            "componentType" : 5126,
            "count" : 60,
            "max" : [
                0.0,
                0.0,
                0.4332733452320099,
                1.0
            ],
            "min" : [
                0.0,
                0.0,
                -0.3253811001777649,
                0.9012625813484192
            ],
            "type" : "VEC4"
        },
        {
            "bufferView" : 12,
            "componentType" : 5126,
            "count" : 60,
            "max" : [
                2.4583333333333335
            ],
            "min" : [
                0.0
            ],
            "type" : "SCALAR"
        },
        {
            "bufferView" : 13,
            "componentType" : 5126,
            "count" : 60,
            "max" : [
                1.0,
                1.0,
                1.0
            ],
            "min" : [
                0.9999998807907104,
                0.9999998807907104,
                1.0
            ],
            "type" : "VEC3"
        }
    ],
    "animations" : [
        {
            "channels" : [
                {
                    "sampler" : 0,
                    "target" : {
                        "node" : 5,
                        "path" : "translation"
                    }
                },
                {
                    "sampler" : 1,
                    "target" : {
                        "node" : 5,
                        "path" : "rotation"
                    }
                },
                {
                    "sampler" : 2,
                    "target" : {
                        "node" : 5,
                        "path" : "scale"
                    }
                }
            ],
            "name" : "ArmatureAction",
            "samplers" : [
                {
                    "input" : 8,
                    "interpolation" : "LINEAR",
                    "output" : 9
                },
                {
                    "input" : 10,
                    "interpolation" : "LINEAR",
                    "output" : 11
                },
                {
                    "input" : 12,
                    "interpolation" : "LINEAR",
                    "output" : 13
                }
            ]
        }
    ],
    "asset" : {
        "generator" : "Khronos Blender glTF 2.0 exporter",
        "version" : "2.0"
    },
    "bufferViews" : [
        {
            "buffer" : 0,
            "byteLength" : 216,
            "byteOffset" : 0,
            "target" : 34963
        },
        {
            "buffer" : 0,
            "byteLength" : 840,
            "byteOffset" : 216,
            "target" : 34962
        },
        {
            "buffer" : 0,
            "byteLength" : 840,
            "byteOffset" : 1056,
            "target" : 34962
        },
        {
            "buffer" : 0,
            "byteLength" : 1120,
            "byteOffset" : 1896,
            "target" : 34962
        },
        {
            "buffer" : 0,
            "byteLength" : 560,
            "byteOffset" : 3016,
            "target" : 34962
        },
        {
            "buffer" : 0,
            "byteLength" : 560,
            "byteOffset" : 3576,
            "target" : 34962
        },
        {
            "buffer" : 0,
            "byteLength" : 1120,
            "byteOffset" : 4136,
            "target" : 34962
        },
        {
            "buffer" : 0,
            "byteLength" : 128,
            "byteOffset" : 5256
        },
        {
            "buffer" : 0,
            "byteLength" : 240,
            "byteOffset" : 5384
        },
        {
            "buffer" : 0,
            "byteLength" : 720,
            "byteOffset" : 5624
        },
        {
            "buffer" : 0,
            "byteLength" : 240,
            "byteOffset" : 6344
        },
        {
            "buffer" : 0,
            "byteLength" : 960,
            "byteOffset" : 6584
        },
        {
            "buffer" : 0,
            "byteLength" : 240,
            "byteOffset" : 7544
        },
        {
            "buffer" : 0,
            "byteLength" : 720,
            "byteOffset" : 7784
        }
    ],
    "buffers" : [
        {
            "byteLength" : 8504,
            "uri" : "animationtest2.bin"
        }
    ],
    "materials" : [
        {
            "name" : "Material",
            "pbrMetallicRoughness" : {
                "baseColorFactor" : [
                    0.6400000190734865,
                    0.6400000190734865,
                    0.6400000190734865,
                    1.0
                ],
                "metallicFactor" : 0.0
            }
        }
    ],
    "meshes" : [
        {
            "name" : "Cube",
            "primitives" : [
                {
                    "attributes" : {
                        "JOINTS_0" : 5,
                        "NORMAL" : 2,
                        "POSITION" : 1,
                        "TANGENT" : 3,
                        "TEXCOORD_0" : 4,
                        "WEIGHTS_0" : 6
                    },
                    "indices" : 0,
                    "material" : 0
                }
            ]
        }
    ],
    "nodes" : [
        {
            "children" : [
                2,
                4
            ],
            "name" : "Armature",
            "translation" : [
                -0.014527827501296997,
                -1.5627315044403076,
                0.02053656429052353
            ]
        },
        {
            "name" : "Camera",
            "rotation" : [
                0.483536034822464,
                0.33687159419059753,
                -0.20870360732078552,
                0.7804827094078064
            ],
            "translation" : [
                7.481131553649902,
                5.34366512298584,
                6.5076398849487305
            ]
        },
        {
            "mesh" : 0,
            "name" : "Cube",
            "scale" : [
                1.0,
                0.9999998807907104,
                1.0
            ],
            "skin" : 0,
            "translation" : [
                0.014527825638651848,
                0.9557145237922668,
                -0.02053656429052353
            ]
        },
        {
            "name" : "Lamp",
            "rotation" : [
                0.16907575726509094,
                0.7558802962303162,
                -0.27217137813568115,
                0.570947527885437
            ],
            "scale" : [
                1.0,
                1.0,
                0.9999999403953552
            ],
            "translation" : [
                4.076245307922363,
                5.903861999511719,
                -1.0054539442062378
            ]
        },
        {
            "children" : [
                5
            ],
            "name" : "Armature_Bone"
        },
        {
            "name" : "Armature_Bone.001",
            "rotation" : [
                0.0,
                0.0,
                0.002236306667327881,
                0.9999974966049194
            ],
            "translation" : [
                0.0,
                1.972347617149353,
                0.0
            ]
        }
    ],
    "scene" : 0,
    "scenes" : [
        {
            "name" : "Scene",
            "nodes" : [
                0,
                3,
                1
            ]
        }
    ],
    "skins" : [
        {
            "inverseBindMatrices" : 7,
            "joints" : [
                4,
                5
            ],
            "skeleton" : 0
        }
    ]
}
