{
    "accessors" : [
        {
            "bufferView" : 0,
            "componentType" : 5123,
            "count" : 3990,
            "max" : [
                3989
            ],
            "min" : [
                0
            ],
            "type" : "SCALAR"
        },
        {
            "bufferView" : 1,
            "componentType" : 5126,
            "count" : 3990,
            "max" : [
                1.9174400568008423,
                2.874300003051758,
                4.0503249168396
            ],
            "min" : [
                -1.9175089597702026,
                -0.017880000174045563,
                -5.054265022277832
            ],
            "type" : "VEC3"
        },
        {
            "bufferView" : 2,
            "componentType" : 5126,
            "count" : 3990,
            "max" : [
                0.9979264140129089,
                0.9997215270996094,
                0.9785598516464233
            ],
            "min" : [
                -0.9979264140129089,
                -0.9999942183494568,
                -0.990172266960144
            ],
            "type" : "VEC3"
        },
        {
            "bufferView" : 3,
            "componentType" : 5126,
            "count" : 3990,
            "max" : [
                1.0,
                0.9988405108451843,
                0.7136746644973755,
                1.0
            ],
            "min" : [
                -1.0,
                -0.9992706179618835,
                -0.9999841451644897,
                -1.0
            ],
            "type" : "VEC4"
        },
        {
            "bufferView" : 4,
            "componentType" : 5126,
            "count" : 3990,
            "max" : [
                0.9929999709129333,
                -0.010400056838989258
            ],
            "min" : [
                0.010300000198185444,
                -0.9915000200271606
            ],
            "type" : "VEC2"
        },
        {
            "bufferView" : 5,
            "componentType" : 5123,
            "count" : 3990,
            "max" : [
                4,
                4,
                4,
                0
            ],
            "min" : [
                0,
                0,
                0,
                0
            ],
            "type" : "VEC4"
        },
        {
            "bufferView" : 6,
            "componentType" : 5126,
            "count" : 3990,
            "max" : [
                1.0000022649765015,
                0.9740126132965088,
                0.33116358518600464,
                0.0
            ],
            "min" : [
                0.00040537863969802856,
                0.0,
                0.0,
                0.0
            ],
            "type" : "VEC4"
        },
        {
            "bufferView" : 7,
            "componentType" : 5126,
            "count" : 6,
            "max" : [
                0.9999998807907104,
                0.22391781210899353,
                -0.0003476711572147906,
                0.0,
                -0.000357332726707682,
                0.22891466319561005,
                -0.2976967990398407,
                0.0,
                0.2280089408159256,
                0.9997660517692566,
                0.2172737568616867,
                0.0,
                1.947666883468628,
                4.692370891571045,
                2.4534049034118652,
                1.0
            ],
            "min" : [
                0.298391193151474,
                -0.03241119906306267,
                -0.9538930654525757,
                0.0,
                -0.9268086552619934,
                -0.3741488456726074,
                -0.9997407793998718,
                0.0,
                -0.1681448519229889,
                0.9272757172584534,
                -0.3738037645816803,
                0.0,
                -0.31746917963027954,
                -1.4577014446258545,
                0.5320385694503784,
                1.0
            ],
            "type" : "MAT4"
        },
        {
            "bufferView" : 8,
            "componentType" : 5126,
            "count" : 70,
            "max" : [
                2.875
            ],
            "min" : [
                0.0
            ],
            "type" : "SCALAR"
        },
        {
            "bufferView" : 9,
            "componentType" : 5126,
            "count" : 70,
            "max" : [
                -1.1496013030409813e-09,
                1.8853518962860107,
                -5.3423718782141805e-09
            ],
            "min" : [
                -1.1496013030409813e-09,
                1.8853518962860107,
                -5.3423718782141805e-09
            ],
            "type" : "VEC3"
        },
        {
            "bufferView" : 10,
            "componentType" : 5126,
            "count" : 70,
            "max" : [
                2.875
            ],
            "min" : [
                0.0
            ],
            "type" : "SCALAR"
        },
        {
            "bufferView" : 11,
            "componentType" : 5126,
            "count" : 70,
            "max" : [
                -0.054770469665527344,
                -0.012020173482596874,
                -0.005349696613848209,
                0.9983821511268616
            ],
            "min" : [
                -0.34758859872817993,
                -0.014374853111803532,
                -0.009423386305570602,
                0.9375216960906982
            ],
            "type" : "VEC4"
        },
        {
            "bufferView" : 12,
            "componentType" : 5126,
            "count" : 70,
            "max" : [
                2.875
            ],
            "min" : [
                0.0
            ],
            "type" : "SCALAR"
        },
        {
            "bufferView" : 13,
            "componentType" : 5126,
            "count" : 70,
            "max" : [
                1.0,
                1.0000001192092896,
                1.0
            ],
            "min" : [
                0.9999998807907104,
                1.0,
                0.9999999403953552
            ],
            "type" : "VEC3"
        },
        {
            "bufferView" : 14,
            "componentType" : 5126,
            "count" : 47,
            "max" : [
                1.9166666666666665
            ],
            "min" : [
                0.0
            ],
            "type" : "SCALAR"
        },
        {
            "bufferView" : 15,
            "componentType" : 5126,
            "count" : 47,
            "max" : [
                1.705484464764595e-08,
                2.136246681213379,
                -1.1059455573558807e-08
            ],
            "min" : [
                1.705484464764595e-08,
                2.136246681213379,
                -1.1059455573558807e-08
            ],
            "type" : "VEC3"
        },
        {
            "bufferView" : 16,
            "componentType" : 5126,
            "count" : 47,
            "max" : [
                1.9166666666666665
            ],
            "min" : [
                0.0
            ],
            "type" : "SCALAR"
        },
        {
            "bufferView" : 17,
            "componentType" : 5126,
            "count" : 47,
            "max" : [
                0.41542088985443115,
                0.006271038670092821,
                0.004346571862697601,
                0.9999896287918091
            ],
            "min" : [
                -0.014268867671489716,
                -0.0008815537439659238,
                -0.006299217697232962,
                0.9095858931541443
            ],
            "type" : "VEC4"
        },
        {
            "bufferView" : 18,
            "componentType" : 5126,
            "count" : 47,
            "max" : [
                1.9166666666666665
            ],
            "min" : [
                0.0
            ],
            "type" : "SCALAR"
        },
        {
            "bufferView" : 19,
            "componentType" : 5126,
            "count" : 47,
            "max" : [
                1.0,
                1.0,
                1.0
            ],
            "min" : [
                0.9999999403953552,
                0.9999998807907104,
                0.9999998807907104
            ],
            "type" : "VEC3"
        }
    ],
    "animations" : [
        {
            "channels" : [
                {
                    "sampler" : 0,
                    "target" : {
                        "node" : 7,
                        "path" : "translation"
                    }
                },
                {
                    "sampler" : 1,
                    "target" : {
                        "node" : 7,
                        "path" : "rotation"
                    }
                },
                {
                    "sampler" : 2,
                    "target" : {
                        "node" : 7,
                        "path" : "scale"
                    }
                },
                {
                    "sampler" : 3,
                    "target" : {
                        "node" : 8,
                        "path" : "translation"
                    }
                },
                {
                    "sampler" : 4,
                    "target" : {
                        "node" : 8,
                        "path" : "rotation"
                    }
                },
                {
                    "sampler" : 5,
                    "target" : {
                        "node" : 8,
                        "path" : "scale"
                    }
                }
            ],
            "name" : "ArmatureAction",
            "samplers" : [
                {
                    "input" : 8,
                    "interpolation" : "LINEAR",
                    "output" : 9
                },
                {
                    "input" : 10,
                    "interpolation" : "LINEAR",
                    "output" : 11
                },
                {
                    "input" : 12,
                    "interpolation" : "LINEAR",
                    "output" : 13
                },
                {
                    "input" : 14,
                    "interpolation" : "LINEAR",
                    "output" : 15
                },
                {
                    "input" : 16,
                    "interpolation" : "LINEAR",
                    "output" : 17
                },
                {
                    "input" : 18,
                    "interpolation" : "LINEAR",
                    "output" : 19
                }
            ]
        }
    ],
    "asset" : {
        "generator" : "Khronos Blender glTF 2.0 exporter",
        "version" : "2.0"
    },
    "bufferViews" : [
        {
            "buffer" : 0,
            "byteLength" : 7980,
            "byteOffset" : 0,
            "target" : 34963
        },
        {
            "buffer" : 0,
            "byteLength" : 47880,
            "byteOffset" : 7980,
            "target" : 34962
        },
        {
            "buffer" : 0,
            "byteLength" : 47880,
            "byteOffset" : 55860,
            "target" : 34962
        },
        {
            "buffer" : 0,
            "byteLength" : 63840,
            "byteOffset" : 103740,
            "target" : 34962
        },
        {
            "buffer" : 0,
            "byteLength" : 31920,
            "byteOffset" : 167580,
            "target" : 34962
        },
        {
            "buffer" : 0,
            "byteLength" : 31920,
            "byteOffset" : 199500,
            "target" : 34962
        },
        {
            "buffer" : 0,
            "byteLength" : 63840,
            "byteOffset" : 231420,
            "target" : 34962
        },
        {
            "buffer" : 0,
            "byteLength" : 384,
            "byteOffset" : 295260
        },
        {
            "buffer" : 0,
            "byteLength" : 280,
            "byteOffset" : 295644
        },
        {
            "buffer" : 0,
            "byteLength" : 840,
            "byteOffset" : 295924
        },
        {
            "buffer" : 0,
            "byteLength" : 280,
            "byteOffset" : 296764
        },
        {
            "buffer" : 0,
            "byteLength" : 1120,
            "byteOffset" : 297044
        },
        {
            "buffer" : 0,
            "byteLength" : 280,
            "byteOffset" : 298164
        },
        {
            "buffer" : 0,
            "byteLength" : 840,
            "byteOffset" : 298444
        },
        {
            "buffer" : 0,
            "byteLength" : 188,
            "byteOffset" : 299284
        },
        {
            "buffer" : 0,
            "byteLength" : 564,
            "byteOffset" : 299472
        },
        {
            "buffer" : 0,
            "byteLength" : 188,
            "byteOffset" : 300036
        },
        {
            "buffer" : 0,
            "byteLength" : 752,
            "byteOffset" : 300224
        },
        {
            "buffer" : 0,
            "byteLength" : 188,
            "byteOffset" : 300976
        },
        {
            "buffer" : 0,
            "byteLength" : 564,
            "byteOffset" : 301164
        }
    ],
    "buffers" : [
        {
            "byteLength" : 301728,
            "uri" : "ankyanim.bin"
        }
    ],
    "images" : [
        {
            "name" : "Anky",
            "uri" : "Anky.png"
        }
    ],
    "materials" : [
        {
            "alphaMode" : "BLEND",
            "name" : "D_R_Calf_m",
            "pbrMetallicRoughness" : {
                "baseColorFactor" : [
                    0.5842999815940857,
                    0.5842999815940857,
                    0.5842999815940857,
                    1.0
                ],
                "baseColorTexture" : {
                    "index" : 0
                },
                "metallicFactor" : 0.0
            }
        }
    ],
    "meshes" : [
        {
            "name" : "anky",
            "primitives" : [
                {
                    "attributes" : {
                        "JOINTS_0" : 5,
                        "NORMAL" : 2,
                        "POSITION" : 1,
                        "TANGENT" : 3,
                        "TEXCOORD_0" : 4,
                        "WEIGHTS_0" : 6
                    },
                    "indices" : 0,
                    "material" : 0
                }
            ]
        }
    ],
    "nodes" : [
        {
            "mesh" : 0,
            "name" : "anky",
            "rotation" : [
                0.028490444645285606,
                9.317007165776658e-10,
                5.823114906933213e-11,
                0.9995940923690796
            ],
            "scale" : [
                1.0,
                1.0,
                1.0000001192092896
            ],
            "skin" : 0,
            "translation" : [
                0.061446912586688995,
                -1.588108777999878,
                3.5629818439483643
            ]
        },
        {
            "children" : [
                0,
                4
            ],
            "name" : "Armature",
            "rotation" : [
                0.6866740584373474,
                0.0,
                0.0,
                0.7269654273986816
            ],
            "translation" : [
                -0.0614469051361084,
                3.6476521492004395,
                1.382591724395752
            ]
        },
        {
            "name" : "Camera",
            "rotation" : [
                0.483536034822464,
                0.20870360732078552,
                0.33687159419059753,
                0.7804827094078064
            ],
            "translation" : [
                7.481131553649902,
                -6.5076398849487305,
                5.34366512298584
            ]
        },
        {
            "name" : "Lamp",
            "rotation" : [
                0.16907575726509094,
                0.27217137813568115,
                0.7558802962303162,
                0.570947527885437
            ],
            "scale" : [
                1.0,
                0.9999999403953552,
                1.0
            ],
            "translation" : [
                4.076245307922363,
                1.0054539442062378,
                5.903861999511719
            ]
        },
        {
            "children" : [
                5,
                9
            ],
            "name" : "Armature_Bone",
            "rotation" : [
                0.7098057866096497,
                0.027545394375920296,
                -0.030374305322766304,
                0.7032029628753662
            ],
            "scale" : [
                1.0,
                1.0,
                1.0000001192092896
            ],
            "translation" : [
                0.0,
                -0.1537388414144516,
                -1.1266812086105347
            ]
        },
        {
            "children" : [
                6
            ],
            "name" : "Armature_Bone.001",
            "rotation" : [
                -0.03993941470980644,
                -0.588833212852478,
                0.10021138191223145,
                0.8010231256484985
            ],
            "scale" : [
                1.0000001192092896,
                1.0,
                0.9999999403953552
            ],
            "translation" : [
                5.180481821298599e-09,
                1.1393818855285645,
                1.9572325982153416e-08
            ]
        },
        {
            "children" : [
                7
            ],
            "name" : "Armature_Bone.002",
            "rotation" : [
                0.07163962721824646,
                0.5876755118370056,
                -0.07289521396160126,
                0.8026154637336731
            ],
            "scale" : [
                0.9999998807907104,
                0.9999998807907104,
                0.9999999403953552
            ],
            "translation" : [
                1.5832483768463135e-08,
                1.9315534830093384,
                1.1175870895385742e-08
            ]
        },
        {
            "children" : [
                8
            ],
            "name" : "Armature_Bone.003",
            "rotation" : [
                -0.0681055337190628,
                -0.01214977540075779,
                -0.009257543832063675,
                0.9975612163543701
            ],
            "scale" : [
                0.9999999403953552,
                1.0,
                1.0
            ],
            "translation" : [
                -1.1496013030409813e-09,
                1.8853518962860107,
                -5.3423718782141805e-09
            ]
        },
        {
            "name" : "Armature_Bone.004",
            "rotation" : [
                -0.015782786533236504,
                -0.0009065341437235475,
                0.004382713697850704,
                0.9998655319213867
            ],
            "scale" : [
                1.0,
                0.9999999403953552,
                0.9999999403953552
            ],
            "translation" : [
                1.705484464764595e-08,
                2.136246681213379,
                -1.1059455573558807e-08
            ]
        },
        {
            "name" : "Armature_Bone.006",
            "rotation" : [
                -0.06703265011310577,
                -0.14341485500335693,
                -0.06304056197404861,
                0.9853754639625549
            ],
            "scale" : [
                0.9999999403953552,
                1.0,
                0.9999999403953552
            ],
            "translation" : [
                5.180481821298599e-09,
                1.1393818855285645,
                1.9572325982153416e-08
            ]
        }
    ],
    "samplers" : [
        {}
    ],
    "scene" : 0,
    "scenes" : [
        {
            "name" : "Scene",
            "nodes" : [
                1,
                3,
                2
            ]
        }
    ],
    "skins" : [
        {
            "inverseBindMatrices" : 7,
            "joints" : [
                4,
                5,
                6,
                7,
                8,
                9
            ],
            "skeleton" : 1
        }
    ],
    "textures" : [
        {
            "sampler" : 0,
            "source" : 0
        }
    ]
}
